<svg width="1196" height="328" viewBox="0 0 1196 328" fill="none" xmlns="http://www.w3.org/2000/svg">
<path d="M5.5 57V4.5M50.5 4.5V57M51 52H5M5 6.5H51M12.5 15.5H43.5M44.5 42.5H11.5M28 15V43M42 28H14M35 32L41 38.5M61 32.5H115M109 6H73.5M74 4V53M92 49.5L65 54.5M114 55C98.3875 50.0901 91.7186 45.262 86.5 32M110 36.5L95 46M107 23.5H73.5M107 15H73.5M124.5 50V5.5M137.5 45V5.5M138 7.5H124M138 25.5H124M138 43H124M143.5 11H173.5M176 22.5H141M141 33.5H175.5M156 55C166 55 166 55 166 45V22M154.5 49L146.5 38.5M158 1.5V23M196.5 2.5L181.5 16.5M198.5 15.5C192.877 23.5928 188.591 27.3349 181 34.5M192 57V22.5M201.5 23.5H235.5M233.5 7.5H204M211.5 54.5C224 54.5 224 54.5 224 42V23M2 101H54M28 92V101.5M16.5 145C28 145 28 145 28 133.5V123.5M47 124H9M9 110.5H47M45 110V124.5M11 110V124.5M14 130.5C11.3281 135.406 8.76877 138.266 3 143.5M41.5 130.5L52.5 143.5M63 94.5L73.5 104M82 138V106.5M102.5 136.5C111 136.5 111 136.5 111 128V106.5M81.5 108.5H111.5M111.5 117.5H81.5M81.5 126.5H111.5M96 137.5V108M87 100.5L105 109M111.5 95L96.5 105.5M80 96H111M71.5 115.5C71.5 148 68.5 143.5 115.5 143.5M72 117H60.5M60.5 144.5L72.5 135.5M132 147V128M164 147V128M164.5 130H131.5M131.5 142.5H164.5M165.5 121.5H130.5M130.5 113H165.5M164.5 96.5H131M121 105H175.5M180.5 97.5H199.5M198.5 115H181M180.5 138.5L199.5 132M190.5 97V135.5M197 143H236M234 130.5H201.5M217.5 143.5V94.5M204.5 94.5V121M231 121V94.5M231.5 96.5H204M204 107.5H231.5M231.5 119.5H204M255 92.5C251.069 103.622 248.353 109.413 241.5 118M250 147V104M275 146.5V92M287 133.5H263M256 105.5H295M255.5 135.5C263.49 127.567 268.358 119.818 275 102.5C282.03 120.77 286.674 127.999 294.5 135M317 92.5C313.069 103.622 308.853 109.413 302 118M311 146.5V105M331.5 93C327.951 102.869 325.211 108.158 318.5 117M355.5 104H326M335 103.5V146.5M355 130H334.5M354 117H334.5M362 146C369.778 136.801 369.488 121.739 369.5 96M388.5 146V97.5M369 98H409.5M397 144.5C409 144.5 409 144.5 409 132.5V96M409.5 126H368.5M369 112H409.5M464.5 97L474 109M454.5 92L447 107M441 107L471 104.5M475 146L466 133M440 143.5L472 140.5M457.5 142.5V105M444.5 114V130.5M471 130.5V114M471.5 128.5H444M444 116H471.5M421.5 96.5H436.5M436 112V94.5M422.5 126.5L425 108M424 110H436.5M422.5 122H436.5M424 144.5C435.5 146 435.5 144.5 436 120M533.5 117.5C525.244 109.247 521.85 103.915 516.5 94M499.5 94C494.339 104.674 491.133 110.23 483.5 117.5M516.5 125.5C522.837 132.872 526.244 137.139 531.5 145.5M483.5 142L528 139.5M506 114L493 142M588.5 114L574 104M580.5 109.5L593.5 95.5M592.5 97H570.5M594.5 114.5L589.5 128.5M594.5 116.5H569.5M571.5 144.5C581.5 144.5 581.5 144.5 581.5 134.5V116M569.5 138.5L540.5 142.5M542 127.5H568.5M555.5 141V96M544.5 94.5V119M566 119V94.5M566.5 96.5H544M544 106.5H566.5M566.5 117H544M260 3.5C254.829 14.2904 250.836 19.5833 241.5 27.5M276.5 3.5C282.153 13.9605 285.779 19.2713 294.5 26M268.5 54.5C284 55 283 55.5 284.5 24.5M244.5 55C258.096 49.1262 262.395 42.5952 264.5 25.5M249.5 26.5H286M314.5 2.5C310.144 8.21901 307.301 11.1694 301.5 16M316 15C311.083 22.7048 307.81 26.6281 300.5 32.5M310.5 57V22.5M355 30.5L345 17.5M316.5 26.5L351.5 25M317.5 43C325.102 37.5307 329.163 34.1395 334.5 25M317 55C333.101 50.7776 340.127 46.1077 348.5 33M355 55C342.722 50.5274 335.166 50.2334 326 35.5M348 34.5H326.5M345.5 7.5L326 26.5M319.5 10L333 20.5M334 2.5L323.5 14M361 13H415M396 21.5V45.5M398.5 55C408.5 55 408.5 55 408.5 45V19.5M376 55C384.5 55 384.5 55 384.5 46.5V20.5M367 56.5V20.5M385 41.5H366.5M366.5 32H385M385 23H366.5M372.5 2.5L378.5 11M404 2.5L397 13.5M425.5 57V4M460 54.5C471 54.5 471 54.5 471 43.5V4M438.5 54.5V29M457 51.5V29M457.5 31H438M438 40.5H457.5M457.5 49.5H438M443 25V4M453 4V25M452.5 23H471.5M471.5 6H452.5M452.5 14.5H471.5M443.5 14.5H425M425 6H443.5M443.5 23H425M508 57V1M534.5 9.5H482M489.5 39V16.5M527 16.5V39M527.5 37H489M489 18.5H527.5M527.5 27.5H489M482 54C491.953 49.0569 497.533 46.3775 507.5 36.5M534 54C523.696 49.2499 517.967 46.2944 508.5 36.5M574 56.5L585.5 32.5M547 34.5H585M581 22.5H555M541.5 27C552.79 19.5156 559.486 15.0293 568 1.5M594.5 26.5C582.677 18.4818 576.053 13.7681 567.5 2.28745M5.5 237V184.5M50.5 184.5V237M51 232H5M5 186.5H51M42 193.5C34.6719 210.014 27.9684 217.005 12 226M43 224.5C32.6823 217.199 27.6354 212.819 13.5 207M29.5 203L25 192M13 194L18.5 204M62.5 184L72 194.5M70.5 205C70.5 237.5 67.5 233.5 114.5 233.5M71 207H60.5M60.5 234.5L71.5 226M76 226.5C81.4599 215.404 81.467 204.393 81 184M101 226.5C110 226 110 226 110 217.5V184M89 224.5V208M101 221.5V208M101.5 210H88.5M88.5 219.5H101.5M110.5 186H80.5M95 189V203.5M85.5 203H105.5M105 195H86M121.5 233.5H174.5M169.5 222H127M126 211.5L166 210M171 214.5L157 202.5M148 210V234M128.5 198H168M144 197.5L135.5 211.5M124.5 197.5V186M172 197.5V186M172.5 188H124M148 188.5V181.5M188 235.5C207.522 232.278 216.426 228.989 222.5 216M233 220.5L221 208M184 220.5C189.433 216.281 192.091 213.47 196 207.5M198 222C208 222 208 222 208 212V182M234.5 203H181.5M192.5 186.5V203.5M229 190.5H207.5M242.5 235.5C249.757 220.732 250.102 208.375 249.5 185M295 225C289 250 286.5 227 286.5 185M249 187H287M279.5 193L254 196.5M283 234L275.5 221M251.5 230.5L280.5 228M267.5 229.5V194M257 202.5V219M278.5 219V202.5M279 204.5H256.5M256.5 217H279M305.5 216C304.418 222.629 303.744 226.239 301.5 231M318.5 216L322 227.5M317.5 201.5L324 213.5M322 208.5L300 210.5M312.5 209V237M319 189.5L305.5 210.5M311.5 202.5L301.5 193M311.5 182.5L304 196M342.5 229.5L323 234M329 233V187.5M352 183.5L328.5 189.5M342 185.5C341.5 234.5 352 245.5 355.5 225M355.5 206.5H328.5M413 236L405 225.5M392.5 226.5L396 236M380.5 227L381.5 236.5M370 225.5C368.67 229.93 367.329 232.274 363 236M361 221H415M410.5 212.5H366.5M370 206V183.5M406 183.5V206M369.5 185.5H406.5M406.5 204H369.5M369.5 195H406.5M388 185V221.5M447 182C444.278 200.811 439.153 209.63 422 221.5M474.5 220.5C463.025 213.389 457.196 208.92 453 196M421.5 205H475M469.5 196.5H426.5M424.5 188H471.5M435 237V212M461.5 236.5V212M462 214H434.5M434.5 233H462M462 223H434.5M532.5 224C532.5 234 532 234 511 234C490 234 489.5 234 489.5 224V196.5M528.5 218.5V196.5M529.5 198.5H489M489 214H529M508.5 214.5V198M518 186C513.971 192.333 511.79 195.49 508 199M482 202C490.341 195.198 494.748 191.178 500 182M496 187.5H518M553.5 209.5C551.588 222.481 548.978 228.076 542 235.5M594.5 234C570.193 234.847 558.101 233.554 551.5 217.5M568 181.5V233M590 217H567.5M594 203H542M547 190.5H590M4.5 323.5C8.73256 320.819 11.2218 318.803 16.5 311.5M38 311.5L51 323.5M47 305.5H9M27.5 296V327M1.5 303C12.3239 297.677 19.7165 296.529 28 284M55 303C43.2693 298.037 36.4373 294.101 27.5 284.744M54.5 278.5H1.5M17 271.5V287M38.5 271.5V287M62 307.5C73.8902 300.063 80.9479 295.785 87.5 283M114.5 307.5C102.74 299.992 96.1765 295.661 87.1167 283.737M103 327V303M73.5 327V303M103.5 305H73M73 322.5H103.5M80 273.5C75.1441 279.985 71.6742 283.354 64.5 289M95 274C101.776 278.921 105.466 281.86 111.5 288M175 297H121.5M147.5 297.5V271.5M122 325C133.821 320.274 138.451 314.955 140 296.5M173.5 313.5C173.5 325 173.5 325 164.5 325C155.5 325 155.5 325 155.5 313.5V296.5M168 275L160.5 290.5M136 290L128.5 275.5M182 279L201.5 274.5M204 291H180.5M193 326.5V276M181 313.5C186.825 305.805 189.374 300.806 192.5 290.5M202.5 306L192.5 292M218 301L207 292.5M209.5 277L219 285M235.5 307.5L203.5 313M226 271.5V327M278 321.5C291.5 322.5 289.5 320 291 304.5M246.5 310L251 292.5M247 306H291.5M243.5 323.5C253.787 319.467 259.408 316.369 268.5 305.5M268 327V282M245 282.5H288.5M288 280.5V297M288.5 295H249.5M282.5 272.5L276.5 283M253.5 272.5L259.5 283M322.5 318L318 306M305.5 306L301.5 321M317 291.5L323.5 304M300 300.5L321.5 298M312.5 327V298.5M319 279.5L305.5 300.5M311 292.5L301.5 282.5M311.5 272.5L304 286M327.5 326V276.5M352 326V276.5M339.5 323V276.5M352.5 299.5H327M327 278.5H352.5M352.5 321H327M382.5 272C382.718 301.153 380.196 314.842 361.5 325M390.5 314C382.184 306.61 377.361 302.606 367 297M415 312C415 323.5 415 323.5 408 323.5C401 323.5 401 323.5 401 312V286.5M403 286.5H363M475 290H421.5M447.5 271.5C446.121 295.727 447.049 309.986 422.5 325M474.5 325C460.729 316.013 453.218 308.151 446.895 282.5M455 323.5L443.5 312M482 277.5H534M482 325C489.857 318.618 490.259 307.234 490.5 286M527 310.5V286M527.5 288H490M527.5 305.5H489M569 271.5V327M595 303.5H541M554.5 274C551.216 283.511 548.722 287.953 544 295.5M591.5 285H549.5" stroke="black" stroke-width="4"/>
<path d="M602 9.5H654M627.5 1.5V10M612 16.5H644M644 25.5H612M614 26V16M642 16V26M606.5 57V30.5M606 32.5H650.5M639 55C649.5 55 649.5 55 649.5 44.5V30.5M618.5 54.5V38.5M637 51V38.5M637.5 49H618M618 40.5H637.5M701 1.5V57M690.5 16.5C698.949 28.7356 703.858 35.2222 715.5 40.5M689.5 11C684.163 34.9263 677.992 43.8918 663.5 55M676.5 1.5C672.995 14.0998 669.563 20.0932 661.5 30M689.5 13H672M682.5 35L666 23M724 11H772M774.5 30.5H721.5M748 1.5V57M721.5 52.5C731.81 47.1791 737.489 43.1968 747 30M774.5 52.5C763.127 45.9864 757.166 41.668 749 30M765.5 15L759.5 27M731 15.5L736.5 27M783.5 5.5H800.5M802.5 14H780M783 22H800.5M800.5 30.5H783M785 57V36.5M798.5 54V36.5M799 38.5H784.5M784.5 52H799M809 57V33.5M831 56.5V33.5M831.5 35.5H808.5M808.5 52H831.5M819.5 36V6.5M831.5 4.27346C825.277 6.03433 821.914 7.01897 805.5 9M803 21.5H836M859.5 3V56.5M841 47L860 39.5M842 19H860M894.5 40C894 53 894 53 884 53C874 53 874 53 874 40V3M893 14C886.347 19.527 881.991 22.2051 873.5 26.5M928 57V11.5M955 31.5H901.5M950 12H911.5M916 2C912.219 11.1113 910.27 16.3179 904 24M971 57V38M1005 57V38M1005.5 40H970.5M970.5 46.5H1005.5M1005.5 53.5H970.5M961 34H1015M988 34.5V1.5M967 20.5H1007M1005 21V6.5M1014.5 14H961.5M967.5 7H1007M1010.5 27H965.5M1048 1.5V57M1021 37.5H1075M1071.5 23.5H1025M1029 4L1036 17.5M1067 4L1059.5 17.5M1086 56.5V18.5M1130 56.5V18.5M1130.5 50.5H1085.5M1085.5 20.5H1130.5M1081.5 7.5H1134.5M1091 41C1101.5 34 1101 31 1101 7M1126 31C1126 37 1126 37 1120 37C1114 37 1114 37 1114 31V7M1146 6H1190M1168 28.5V5.5M1144.5 23V11M1191.5 23V11M1192 13H1144M1186 19.5H1173M1173 25.5H1187.5M1162.5 19.5H1150M1162.5 25.5H1148.5M1150 51.5V30.5M1186 49V30.5M1186.5 32.5H1149.5M1149.5 39.5H1186.5M1186.5 47H1149.5M1193.5 47C1193.5 54.5 1193.5 54.5 1180.5 54.5C1167.5 54.5 1167.5 54.5 1167.5 47.5V32M609 121.5V94M646.5 94V121.5M647 119.5H608.5M608.5 107.5H647M647 96H608.5M628 120V95.5M635 132.5C630.283 128.417 627.497 126.782 622.5 124M644.5 127.5C648.393 133.292 650.554 136.542 653 142.5M609.5 128C607.492 134.187 606.203 137.495 603 142.5M641.5 135C641.5 143 641.5 143.5 629.5 143.5C617.5 143.5 617.5 143 617.5 135V127.5M665.5 109V97M711 109V97M711.5 99H665M688 99.5V91.5M671 109H704.5M713.5 140C702.851 133.972 697.198 129.709 692 108.5M710.5 114.5L696.5 124.5M664.5 121.5C675.66 117.763 681.673 115.463 689 108.5M677.5 144.5C696.5 149.5 694 125.5 680.5 114.5M662.5 142C674.3 138.002 680.111 134.35 690 127M664.5 131C673.614 127.552 678.621 125.497 686 120M724 107.5C734.189 103.213 739.819 100.665 747.5 92M723.5 122.5C741.51 117.592 751.482 113.398 764.5 97M730 129.5C741.636 125.172 747.982 122.286 757.5 112.5M728 145.5C751.823 140.508 762.862 134.782 773 118M749 119.5H772.5M740.5 98.7278H764M749 113L734 102M741 124L757.5 136M819 104C811.207 99.2976 806.675 96.9035 798 93.5M823.5 112.5C828.72 120.438 831.87 124.73 834.5 134.5M788.5 114C786.974 123.553 786.184 128.962 781.5 136M822.5 131C822.5 144 822.5 144 810.5 144C798.5 144 798.5 144 798.5 131V108.5M869.5 110H840.5M853 110.5V91.5M862.5 100H843M841 126C852.598 117.674 859.318 114.437 869 93.5M840.5 133L869.5 130M847 145C855 145 855 145 855 137V124M845.5 118H864.5M865.5 116.5L854.5 126.5M868 119.5C873.223 110.272 875.92 104.832 878 92M895.5 105H874.5M890 104.5C886.163 127.176 881.987 136.23 866.5 145M894.5 145C884.364 138.123 879.895 132.781 874.5 106M949.5 98.5H906.5M901.5 115.5H954.5M953 132.5C953 143.5 953.5 143.5 944 143.5C934.5 143.5 935 143.5 935 132.5V115M902.5 145C913.565 139.887 917.981 134.353 919.5 115M963.5 94.5L973.5 104M971.5 115.5C970.5 145.5 971.5 143.5 1015 143.5M961 117.5H972M961.5 144L972.5 135M977.5 135C985.034 125.558 985.238 115.166 985.5 96.5M1001.5 138.5V110.5M1015 111H984.5M1010 94L985 99M1073.5 111.5H1022M1026.5 100.5H1060.5M1044 112V91.5M1069.5 95.5C1058.93 107.02 1053.17 113.459 1021 127.5M1034 135L1038.5 117.5M1066 118.5C1055.85 120.913 1049.6 121.999 1036.5 123M1048 145C1065 146 1061.5 144 1065.5 128.5M1034.5 130.5H1065M1081.5 97.5H1135M1130.5 106V146.5M1085.5 146.5V106M1085 141H1131M1120.5 133.5V106.5M1095.5 133.5V106.5M1108 133.5V97M1121 108.5H1095M1121 131.5H1095M1121 120H1095M1154.5 100.5L1144.5 94M1141.5 110L1151.5 116M1153 125.5L1144 145M1167 92C1163.74 100.549 1161.84 105.237 1157 111.5M1195 101H1162.5M1155 123H1196M1160.5 141L1165 108.5M1196 136H1161M1177.5 108.5L1173.5 136.5M1175.5 145C1190 145.5 1187 144.5 1189.5 108.5M1190 110.5H1164M613.5 237V186M622 184L602 189M601 201H624.5M630.5 195.5C629.565 202.949 628.353 206.122 626 211.5M601 224.5C606.793 216.461 609.391 211.17 613 200.5M622 215L613 204.5M652 195.5C650.047 202.028 648.687 205.497 646 211.5M639.5 181.5C638.636 212.871 638.5 223.5 623 235.5M655 235C645.398 229.134 641.812 222.52 638.666 202.5M662.5 186H713.5M670.5 191V214.5M705.5 214.5V191M706.5 193H670.5M670 199.5H706M706 206H670M670 212.5H706M662.5 226C674.11 221.385 679.134 218.481 682 212M688 185.5L685.5 193.5M661.5 235C680.127 232.659 690.516 231.215 704.5 217.5M714.5 235C693.116 232.033 683.164 229.255 676 218.5M704 218.5H676.5M721.5 206C733.429 197.704 740.786 193.458 747.5 182M775 205C766.446 199.856 763.956 200.818 747.5 182.5M733 203H763M732 237V213M764 237V213M764.5 215H731.5M731.5 232.5H764.5M807.5 237V181.5M835 192H781M789.5 229.5V202.5M816 227C827 227 827 227 827 216V202.5M827.5 204.5H789M846 237V192M878 234.5C890 234.5 890 234.5 890 222.5V192M890.5 194H845.5M851.5 222.5C867.888 213.888 868.554 202.718 868 181.5M884.5 222.5L866 204M905 237V184M951 237V184M951 186H904M904.5 231.5H951.5M937.5 220V198M918.5 220V198M918 200H938M938 218H918M988 237V181.5M961.5 207H1014.5M1009.5 185.5L1000 201M975.5 200C973.146 194.287 970.814 191.342 967 186M962 232.5C973.061 224.648 978.461 219.266 985.5 206.5M1014.5 231.5C1003.72 224.004 997.886 219.423 990 206.5M1068 237V203M1028 218.5H1068.5M1025 232H1068.5M1026 205H1068.5M1068.5 184.5L1060.5 199.5M1035 198.5C1033.22 193.793 1031.09 190.681 1027 185M1048 205.5V181.5M1081 192H1135M1125.5 237V200M1090 237V200M1089.5 202H1126M1126 211.5H1089.5M1089.5 221.5H1126M1126 231.5H1089.5M1093.5 182.5L1099.5 189.5M1122.5 182.5L1116 192.5M1105.5 202.5L1109 191.5M1155 209V181.5M1140.5 194.5H1169.5M1166 183.5L1161.5 191.5M1148.5 191.5L1144.5 183.5M1141.5 207.5C1147.3 204.005 1150.29 201.246 1155.5 196M1167 205L1154.5 196M1140.5 215.5H1170M1153.5 209L1144.5 226.5M1141.5 235C1156.24 231.14 1160.68 226.67 1162.5 215M1166 233.5L1146 222.5M1167.5 210C1173.29 201.686 1175.79 195.865 1178 182M1195.5 195H1174.5M1194.5 235C1185.76 229.376 1179.51 220.63 1174 196M1166.5 235C1181.24 227.499 1186.21 218.361 1190 194.5M602.5 291.5C610.019 285.254 614.092 281.354 620.5 272M611 313.5C608.262 319.606 606.367 322.271 602.5 326M621 314.5L622.5 326M633 314.5L637 326M644.5 313.5C648.733 318.417 651.013 321.169 653.5 326M610 311V285.5M646.5 311V285.5M628 311V285.5M609.5 308.5H647M647 297.5H609.5M609.5 287.5H647M637 276.5C632.728 282.573 630.677 285.006 627.5 288M636.5 277.5H616M669.5 300V275M706.5 300V275M669 277H707M707 298H669M662 325C674.886 320.592 678.433 314.27 679.5 297.5M713.5 312.5C713.5 324 713.5 324 704 324C694.5 324 694.5 324 694.5 312.5V297.5M725 327V274M771 327V274M771.5 276H724.5M724.5 322.5H771.5M747 318.5V303M735.5 304H760.5M736 306V294.5M760 306V294.5M760.5 296.5H735.5M730.5 315L747.5 306.5M765.5 316.5C758.114 314.053 753.948 311.149 746.5 305M763.5 305L754 311.5M730 291H766M733.5 284H762.5M747.5 291.5V279.5M782 325C785.452 321.92 787.165 319.394 789 310.5M797 312C798.7 316.76 799.309 319.394 799.5 324M807.5 311.5L811.5 322M817.5 310.5L822.5 318.5M830 276.5H789.5M790 274.5V307.5M789.5 305.5H832.5M808.5 306V276M789.5 286H828M828 296H789.5M818.5 325C830 324 830 327.5 832.5 303.5M841.5 279.5H867.5M854.5 280V272M841 323.5C844.443 318.338 844.518 307.823 845 290.5M868 292.5H844.5M850 290L847.5 282.5M862 282.5L859.5 290M849 303C853.999 300.877 856.733 299.33 861.5 296M849 313C854.643 310.781 857.815 308.949 863.5 304.5M848 324.5C855.253 321.694 859.255 319.903 865 312M865 325.5L878 317.5M895 325.5L885.5 317.5M872 315.5V284M892 284V315.5M892.5 313.5H871.5M871.5 304H892.5M892.5 295H871.5M871.5 286H892.5M895 276H868M879.5 286.5L882.5 275.5M928 297C932.652 289.204 934.218 283.878 935.5 273M945 273C947.122 284.728 949.097 290.039 954.5 296.5M931.5 326.5V300.5M950.5 300.5V326.5M951 321.5H931M951 302.5H931M906.5 280C906.824 305.897 906.762 319.467 902 325.5M914.5 325C922 325 922 325 922 317.5V280M914 317V303.5M915.5 294.5L912 286.5M900.5 301L926.5 298.5M922.5 281.5H906M914.5 272L911.5 282M973.5 296.5L964.5 286M971.5 324.5C983 324.5 983 324.5 983 313V275M961 314L983.5 302.5M962 277H983.5M1000.5 296.5L991 285.5M998 324.5C1010.5 324.5 1010.5 324.5 1010.5 312V275M988.5 313L1011 300.5M988.5 277H1011M1027.5 274.5V287M1068.5 287V274.5M1048 287V271.5M1069 285H1027M1021.5 295.5H1075M1021.5 317.5C1031.1 310.177 1036.53 306.111 1041 295M1035 327V306M1068.5 306V327M1069 322H1034.5M1034.5 308H1069M1083.5 292C1090.95 285.775 1094.91 281.861 1100.5 272M1082 325.5C1093.2 315.544 1091.4 303.688 1092 285.5M1114.5 325C1128 325 1128 325 1128 311.5V285.5M1090 311.5H1128.5M1109.5 285.5V312M1128.5 299H1091.5M1091.5 287.5H1128.5M1118 276C1114.48 281.677 1112.51 284.173 1109 288M1117.5 277.5H1096.5M1151 272L1143 309.5M1140.5 286H1160M1142.5 325C1153.6 317.458 1156.94 307.754 1159.5 284M1160.5 318.5C1154.97 312.185 1151.41 308.908 1143.5 304M1162 297.5H1195M1193 283.5H1164M1178.5 327V271.5M1161.5 321C1168.69 314.434 1172.49 310.171 1177 297M1194.5 320C1187.95 313.975 1184.51 309.809 1180 297" stroke="black" stroke-width="4"/>
</svg>
