<svg width="2395" height="150" viewBox="0 0 2395 150" fill="none" xmlns="http://www.w3.org/2000/svg">
<path d="M11 7.5V58M45.5 7.5V58M10.5 10H46M10.5 30.5H46M10.5 52H46M60.5 30.5H115.5M147.5 5.5C145 37 138 46.5 122 56.5M174.5 56.5C156 45.5 150.5 33 147.5 6M211 59V11M181 43H235M191 26.5H231M193 26V43.5M232.5 13H192.5M196.5 4C195.162 10.044 192.021 15.0628 183.5 26M242 23H294.5M268 4C268.045 35.976 260.243 47.4205 242 57M293.5 56.5C280.702 50.2074 276.148 42.9501 268 23.5M301.5 28H355M328 3.5V58.5M366.5 14.5H409.5M361.5 50.5H414.5M422 18.5H474M448 3.5V59M434 45H462M447 19C438.202 33.1077 433.498 40.6942 421.5 47.5M449 19C457.041 33.2775 462.85 40.1235 474.5 47M486 43V14.5M530 43V14.5M507.773 59V3.5M485.5 16.5H530.5M530.5 37H485.5M549 9.5V28.5M547 28H589M587 28.5V9.5M567.5 4V55M547 59V34M589 34V59M546.5 53H589.5M605.5 11.5H650.861M609 31.5H646M602 52H654M671 40V6M705 6V40M705.5 38H670.5M670.5 28H705.5M670.5 18H705.5M705.5 8H670.5M662 57C672.964 53.5247 678.419 50.9479 679.5 38.5M713.5 47C713.5 56 712.5 56 704 56C695.5 56 694 56 694 47V38.5M733 7C733 53 727 49.5 722 57M750.5 56C767 56 765 55 765 40C765 25 765 7 765 7M732.5 9H765.5M765.5 23.5H732.5M765.5 38H731M781.5 54.5H834.768M808 55V3.5M788 35H830M832 17.5H790M794.5 5C792.209 13.132 790.76 17.7765 783.5 28.5M845 11.5H890.5M841.5 53.5H894.5M882.5 54V28.5M847.5 29H884.5M857 54L865.5 11M901 53.5H955M926 54V5M925.5 25H950.5M965.5 57V9M1010.5 57V9M965 11H1011V50.5H965M970.5 39C977.695 34.2912 980.758 29.5023 981.5 10.5M1005.5 27.5C1005.5 34 1004.5 35.5 999.5 35.5C994.5 35.5 993.5 34.5 993.5 27.5V10.5M1022.5 55H1073.5M1025.5 36H1070.5M1033 24H1063M1047.7 55.5V23.5M1037.5 51C1035.97 46.6678 1034.64 44.4166 1032 40.5M1063.5 40.5L1057 51.5M1022 27C1033.19 20.3089 1039.26 16.6516 1047.5 4C1056.91 15.8342 1062.82 20.4037 1074 26.5M1101.5 4.5C1101.13 32.2713 1100.05 46.9393 1082 57M1082.5 21H1121.5M1134.5 46.5C1134.5 55 1133.5 56 1127 56C1120.5 56 1119.5 55 1119.5 46.5V20.5M1151.5 9.5H1169.5M1169 7.5C1167.5 24.5 1174.71 44.7968 1194 56.5M1142.5 57C1152 50.5 1160.97 43.9569 1167 19.5M1203 15.5H1253.5M1205 27V15M1251.5 27V15M1211.5 26H1242M1243.5 25L1227.5 36M1228 33V46C1228 56 1228 57 1216 57M1201.5 39.5H1254.5M1209 5L1214.5 13.5M1224.5 4L1229.5 13.5M1248 4.5L1241 15M1265.5 59V7.5M1299 56.5C1311 56.5 1310.7 56.5 1310.7 44.5V7.5M1265 10H1311M1311 32H1265M1288 32.5V9.5M1321 32.7591H1375M1335 57C1348 57 1348 57 1348 44V21M1327 10H1367M1368.5 9.5L1347.5 25M1393.5 10.5H1417.5M1382.5 57C1389.06 49.3877 1392.86 46.9323 1398 20M1433 57C1422 46.5 1418 30 1416.5 8.5M1441.5 20H1494.5M1468 20.5V4M1443 57C1449.75 47.8643 1453.52 42.7321 1458 31.5M1477.5 31.5C1483.53 40.8969 1487.16 45.7636 1492 57M1501.5 10.2452H1554.5M1526.78 10V59M1549.5 37C1541.6 31.2739 1537.07 28.2856 1528.5 24M1614 47.5C1613 63.5 1602 59 1603 27M1566.5 29H1603.5M1591.5 33C1584.34 43.2091 1579.83 48.8456 1564 57.5M1569.5 36C1579.79 42.6117 1585.69 45.9993 1595 55M1573 20.5H1608M1575.5 4C1572.17 12.8455 1570.22 17.7941 1562.5 26M1613.5 12H1572M1635.5 56.5C1648 56.5 1648 56.5 1648 44V4.5M1632.5 19C1630.32 29.4443 1628.35 35.0882 1622.5 44.5M1662.5 19C1667.87 28.8744 1670.93 34.382 1674 45.5M1730.5 42.5C1730.5 54.5 1730.5 54.5 1715.5 54.5C1700.5 54.5 1700.5 54.5 1700.5 42.5C1700.5 30.5 1700.5 4.74306 1700.5 4.74306M1735 21L1681.5 30M1746.5 58V18M1789.5 18V58M1746 51H1790M1767.71 51.5V5M1801 20H1855M1826 4L1810 42.5M1852 57C1837.02 46.8978 1827.94 43.091 1811.5 37M1803 57C1825 52 1838.37 48.7035 1843.5 19.5M1862 9H1914M1871 59V20M1906 20V59M1906.5 53H1870.5M1870.5 37.5H1906.5M1906.5 22H1870.5M1888 8.5L1885 22.5M1921.5 31.5H1974.5M1948 3.5V32M1970 15H1931.5M1935 5.5C1932.83 12.6424 1932.11 16.3598 1926.5 25.5M1940 31C1938.5 43 1938.26 50.4452 1923 57.5M1972.5 46C1972.5 55.5 1972.5 55.5 1964 55.5C1955.5 55.5 1955.5 55.5 1955.5 46V31M2003 4C1997.25 11.9507 1995.36 16.3788 1982 24.5M1997 11.5H2020.5M2021.5 10C2011.61 29.5927 2001.77 36.2341 1982 44.5M1991 17.5L2006.5 31.5M1999.5 59V33.5M2029 59V33.5M2029.5 35.5H1999M2029.5 54.5H1999M2050 7C2049.97 32.1727 2050.66 47.4564 2041.5 57.5M2069 9.5V53.5M2089 7V59M2101 29.5H2155M2127.5 59V10M2147 6.5C2135.57 8.90433 2131.55 10.0877 2105.5 13.5M2176 56.5C2188 56.5 2188 56.5 2188 44.5C2188 32.5 2188 4 2188 4M2214 52C2203.23 45.1402 2197.21 40.8289 2187.5 14.5M2212 15L2194.5 32M2181 19.5C2176.18 35.1381 2172.57 42.7412 2162 51M2161 21.262H2181M2229 31V7M2266.5 7V31M2267 29H2228.5M2228.5 18.5H2266.79M2266.79 9H2228.5M2247.73 8.5V29.5M2268.5 37C2266.5 57.5 2267 56.5 2252 56.5M2222 57C2235.93 52.6798 2244.12 50.8401 2247 29.5M2222 39H2268.5M2292 3.5V58.5M2281 18.5H2301.5M2301 38L2291.5 23.5M2281 46.5L2292.5 19M2302 14.5H2335M2318.5 3.5V15M2312 19.5C2309.25 24.613 2307.14 27.4595 2302.5 32.5M2324.5 19.5L2334.5 32M2326 29.5C2324 41 2313.5 52.5 2301 57M2310 30C2315.95 43.926 2320.67 50.3693 2334 57M2345 25H2391M2341 54H2368M2395 54H2368M2368 54V4M28 149V94M2 110.5H54M1.5 140.5C8.5 136 20 126.5 26.5 111M54 140.5C43.5 133 37.1601 125.525 29.5 111M88 149V93.5M63 101.5H113M115 138H61M69.5 131V107.5M106.5 107.5V131M107 129H69M69 119.5H107M107 109.5H69M128.5 149V103.5M167 103.5V149M167.5 142H128M128 123.5H167.5M167.5 105.5H128M147.5 94L143 106M181.5 100.5H234.5M233 119H183.5M182 147C205 136 208 132 208 100M234.5 147C216.358 140.246 212.428 132.798 208 118M268 94.5C269 130.5 261 135.5 243 147M293.5 147C279.724 139.875 267.883 133 267.883 108M252 106.5C251.197 114.252 249.803 118.191 244.5 124M290 107L281 123.5M302 107H354M347.5 148.5V121M316.305 149V121M316 143H348M348 123H316M301.5 135C313.925 125.459 319.26 116.862 325 94M362 106.5H414M378 122.5H412M415 145H372M394 145.5V122M361.5 143.5C373.295 130.254 377.759 119.187 382.5 94M455.5 149V94.5M436.5 111H475M436 140C445.249 129.587 450.636 123.441 455.5 108.5M474.5 139C466.824 130.666 462.292 124.222 455.5 108M438 95C432.493 106.446 428.777 112.065 420.5 120M431 148.5V107M481 144H535M533 107.5H483M508 108V93.5M493.5 113.5C496.276 122.937 497.976 128.184 499.5 138M522.5 113.5L513.5 144.5M554 146.5C568 146.5 568 146.5 568 132.5V98.5M541 127H595M591.5 113H545M546 101C562.516 99.7998 571.848 99.3489 587.5 95.5M603 109H650.5M632 146C650 147.5 646 148 650.5 107M625 94C625.092 119.376 623.964 132.994 603 147.5M669.5 148.5V97.5M706 148.5V97.5M706.5 99.5H669M669 113.5H706.5M706.5 127.5H669M669 142H706.5M726 148.5V97.5M770 148.5V97.5M770.5 99.5H725.5M725.5 121H770.5M747.5 143V99M770.5 142.5H725.5M783.5 100H833M835 144H781M791.5 144.5V113.5M809.5 144.5V99.5M830.5 121H809M841 106H868M895 106H868M868 106V93.5M884 105.5C876.57 127.669 867.578 136.824 842.5 147M852 105.5C859.256 126.469 866.451 136.562 893.5 147M908 147.5V100M948 100V147.5M948.5 102H907.5M907.5 140H948.5M964.5 142V96.5M986 96.5V137.5M986.5 135.5H964M964 116.5H986.5M975.25 98V136M989 103H1016M993 147C1006.5 147 1005 148.5 1005 135V102.5M1021.5 145H1074.5M1069 129H1027.5M1048 128.5V145.5M1025 112V101M1022.5 101.5H1073.5M1071.5 111V101M1048 102V94M1041.5 101C1040.29 113.048 1037.73 118.624 1023.5 122.5M1071.5 113.5C1071.5 119.5 1071.5 119.5 1063 119.5C1054.5 119.5 1054.5 119.5 1054.5 113.5V101M1081 99.5H1135M1086 149V109.5M1085.5 111.5H1130.5M1107.5 148V99M1102.5 125.5L1092.5 118.5M1091.5 130.5L1102.5 138M1113 130.5L1124 138M1124 125L1113.5 118.5M1119 146.5C1130 146.5 1130 146.5 1130 135.5V109.5M1150.5 117V96.5M1187 96.5V117M1187.5 98.5H1150M1150 114.5H1187.5M1154 122C1152.2 133.369 1149.81 139.022 1142.5 147.5M1194.5 146C1170.43 146.779 1158.5 145.711 1152 129.5M1168.5 145.5V114M1191 128.5H1168M1228 149V118.5M1201 132H1255.5M1246.5 121.5V109M1246.5 96.5V109M1209.5 96.5V121.5M1209 119H1247M1246.5 109H1209M1209 98.5H1247M1265 114V101.5M1263 102H1288M1313 102H1288M1311 114V101.5M1288 102V93.5M1272 113H1301M1277 146.5C1288 146.5 1288 146.5 1288 135.5V121.5M1303 112L1287.5 124M1262 128H1314M1324.5 101H1372M1348 101.5V93.5M1321 115H1375M1361.5 103.5L1357 113M1339 113L1335 104M1332.5 149V122.5M1364.5 149V122.5M1365 124.5H1332M1332 134H1365M1365 145H1332M1381.5 101H1434M1418 110V93.5M1398 93.5V110M1433 135.5C1433 146 1433 146 1422 146C1411 146 1411 146 1411 135.5V110.5M1431.5 117.5L1410.5 128.5M1398 110.5C1393.43 119.453 1389.85 123.955 1381.5 131M1393 149V118M1441.5 116H1494.5M1490 103H1447.5M1468 116.5V93.5M1494 138.5C1490.7 132.618 1488.55 129.236 1484 123M1452 123C1448.85 129.189 1446.68 132.477 1442 138M1449.5 147.5C1460.39 140.011 1462.15 132.188 1462 115.5M1465.5 146.5C1475.5 146.5 1475.5 146.5 1475.5 136.5V115.5M1505.5 99.5H1551.5M1554.5 115H1501.5M1507.5 107H1548.5M1528 116V93.5M1512 149V120M1533.5 147C1544 147 1544 147 1544 136.5V120M1544.5 122H1511.5M1511.5 129.5H1544.5M1544.5 137.5H1511.5M1561 108.5H1585M1574 93.5V148.5M1584 128L1573.5 116.5M1561 135.5C1566.59 127.304 1569.62 122.03 1574.5 109M1598 132L1590.5 118M1587 108.5H1616M1595.5 146.5C1607 146.5 1607 146.5 1607 135V93.5M1647.5 94.5C1640.56 107.297 1635.91 113.537 1625.5 122M1669.5 104C1660.52 130.221 1649.78 137.851 1627 147M1638.5 118L1656 130M1669.5 105.5H1640.5M1682 100H1734M1695 149V118.5M1728.5 149V118.5M1729 120.5H1694.5M1729 142.5H1694.5M1702.5 99.5C1697.71 115.391 1692.71 122.524 1681.5 133.5M1753 94C1749.53 106.991 1746.95 112.235 1742 120.5M1768 108H1748M1755 149V107.5M1773.5 146.5C1784.5 146.5 1784.5 146.5 1784.5 135.5V107.5M1795.5 108H1771.5M1776 94C1773.57 104.996 1770.68 110.57 1765.5 120.5M1804.5 102H1851.5M1827.5 120V93.5M1803.5 118C1813.97 113.431 1818.36 109.9 1827 101.5M1852.5 117.5C1842.08 113.193 1836.48 110.214 1828 101.5M1814 149V118M1840 118V149M1801 127H1825M1828 127H1855M1800.5 143.5C1806.03 138.385 1809.19 135.733 1813.5 126.5M1825 144.5C1831 139.411 1834.22 135.698 1839.5 126.5M1824 138.5L1813.5 130.5M1855 144.204C1849.62 139.791 1846.46 136.009 1840.5 126.5M1861 108.5H1885M1874 93.5V149M1861 135.5C1866.94 126.456 1870.11 121.139 1873.5 108M1885 125L1873.5 111.5M1887.5 108.5H1914.5M1900.5 93.5V149M1885 137.5C1892.59 128.44 1895.94 122.08 1900 108M1914.5 137C1908.3 127.342 1905.18 121.281 1901 108M1921 144H1975M1972 100H1948M1924 100H1948M1926.5 121H1970M1948 100V144.5M1981 113.5H2035M2008 94C2007.58 122.187 2003.82 135.096 1983 146.5M2034 146.5C2015 136 2010.5 125.5 2007.7 103.237M2029 106.5L2017 96.5M2044 100H2092M2089.5 120.5H2046.5M2095 144.5H2041M2068 145V99.5M2088.5 138L2077 127M2101.5 100H2154.5M2138.5 107V93.5M2117.5 93.5V107M2101.5 137H2154.5M2110.5 129V108M2145.5 108V129M2110 127H2128M2146 127H2128M2146 110H2110M2146 118.5H2110M2128 127V149M2162 99.5H2214.5M2202.5 99V148.5M2214.5 136.5L2161.5 140.5M2173.5 140.5V99.5M2203 126H2173M2173 112.5H2203M2273 148C2268.91 141.065 2266.35 137.503 2261.5 131.5M2221.5 144L2270 141.5M2247.5 143.5V93.5M2268 103.5V128.5M2228 128.5V103.5M2227.5 105.5H2268.5M2268.5 124H2227.5M2333.5 129.5L2319.5 113.5M2281.5 125L2328.5 122.5M2333 145.5L2318.5 132M2296 131.5C2291.7 137.593 2288.97 140.651 2283.5 145.5M2308 149V123M2321.5 100.5L2295 125M2286.5 105L2304 117.5M2305.5 94.5L2291.5 109.5M2361.5 137.5L2344 147.5M2375 137L2392.5 147M2386 134V96.5M2351.5 96.5V134M2351 132H2386.5M2386.5 120.5L2351 120M2351 109.5H2386.5M2386.5 99H2351M986.5 98.5H964" stroke="black" stroke-width="4"/>
</svg>
