<svg width="1373" height="956" viewBox="0 0 1373 956" fill="none" xmlns="http://www.w3.org/2000/svg">
<path d="M3.99994 13.5C17.4999 15 34.5937 12.8063 42.9999 11.5M28.9999 53C48.9999 50.5 52.4999 34 40 26C27.5 18 1.99993 32 3.49993 44.5C4.99993 57 30.4999 44.5 36.4999 18.5M59.9999 21C96.4999 17.5 94.1119 18.3437 92.5 35C90.8881 51.6563 88 53 76 50.5M110.5 34C107.053 24.6849 104.747 20.0975 100 13M147.5 4.5C157.5 42 172 34.5 147 34M131 33C121.5 53 140 54 160 51M71 126C62.5 142.5 78.5 144.5 98.5 141.5M37.4999 102.5C43.4197 112.058 45.753 118.586 47.9999 132.5M5.49993 100C2.99994 141.5 17.4999 150.5 25.9999 127M132.5 95.5C132 132 129 137 138 141.5C147 146 161 139 167 130M12.9999 187C22.5158 188.436 28.0281 188.911 37.9999 189.5M5.99994 205C37.9999 195.5 41.2965 204.372 40.4999 214.5C39.7034 224.628 28.005 228.989 14.9999 232.5M86 94.5C96 138.5 111.5 127.5 86.5 127M198.5 4.5C196.4 21.7091 193.314 32.399 185 53M207.5 25.5C215.604 24.5738 220.217 24.7159 228.5 25.5M206 37.5C202.54 52.0957 214 52 229 50M274 23C277.5 57 268.5 53.5 261 52C253.5 50.5 254.5 27 288 48.5M197.5 95C190.5 139.5 181.649 129.243 204 119.5C222.5 111.436 240.5 145 194.5 142M248 97C240.5 150.5 246 152 251 124.5M262.5 104C272.199 104.703 277.505 104.615 286.843 104M262.5 125.5C258.845 139.137 265.39 141.409 289 138M275.5 14.5C281.295 17.1635 284.826 18.4299 289.5 22.5M259.5 4.5C256.222 19.783 252.875 28.0471 243 42M307.5 6C300.5 54 304.5 66 311 35M337 6C338.5 48.5 340.5 50.5 328 52C315.5 53.5 315.5 23.5 350.5 48M94.5 185.5C65 215.5 59.5 199.5 96 233M150 184C148.5 208.5 155 221 144 220C133 219 132.5 205.5 143 203.5C153.5 201.5 159.5 225 135 233M180.5 203C216 188.5 225 195.5 226.5 208C228 220.5 214.42 226.185 196 228.5M302 103.5C324.5 103.5 327.582 88.3934 310.541 115.447C293.5 142.5 335 156.5 338.041 124.447C341.082 92.3934 330 90.5 350 125M386.5 4C388 52 390 53.5 376 52.5C362 51.5 366.5 24 405.5 49.5M368.5 100.5C400.5 97 386.667 98 378.5 122.5C370.333 147 356.778 137.5 364 125C371.222 112.5 394 117 410.5 130M13.4999 277C22.4929 278.484 27.6346 279.148 36.9999 280M5.99993 293.5C47.9999 295 43.9999 277 4.49993 323M48.9999 321C19.4999 328.5 37.9999 302.5 19.4999 307.5M16.9999 364C17.5 413.5 18.5 413.5 9 410.5C-0.5 407.5 1.49999 395.5 25 390C48.5 384.5 54 410 25.9999 411.5M37.5 372.5L50.5 381M67.5 276C61 328 64.5 330.5 71.5 303.5M98 275.5C99.8735 306.798 98.0486 318.929 86 324M133 278C133 328.5 128 321.5 163.5 319.5M157 276C156 311 158.5 307.5 145.5 306M222 321.5C191 322 192.5 281.5 228 280.5M180.5 285L228 280M69 372C81.4955 373.235 88.5022 373.175 101 372.5M69 394C63.6976 412.371 79 413 105 409M131 370C169 370 161.5 360.5 134 388.5M159 412.5C132 415 131.5 388 159 387M240 288C264.5 284 260.5 281 240 315M292 318C272.5 298.5 259 312.5 268.5 319.5C278 326.5 290.5 312 283.5 292C276.5 272 251.423 300.013 240 314.5M318 187C326 192 340 193.5 327 200M319 204.5C335.5 221.5 339 233.5 314 230.5M340.5 209.5C345.323 216.49 347.527 220.536 350.5 228M299 228C305.197 224.049 308.517 221.587 314 216.5M300.5 307.5C328.5 277 310.5 279.5 350 317.5M222.5 374C179 392 176.5 417.5 225 410M200 385.5L191 366.5M265.5 372C259 421 242.5 407.5 241.5 395.5C240.5 383.5 261.5 362 278.5 375.5C295.5 389 284 410.5 265.5 412M306.5 366.5C299.5 414.5 303.5 426.5 310 395.5M336 366.5C337.5 409 339 411 327 411.5C315 412 316 384.5 350 407.5M374.5 184C376.15 216.826 377.5 221.5 369.5 221.5C361.5 221.5 360.5 204.5 370.5 205C380.5 205.5 363 232 383 232C403 232 402.5 230 402 216.5M397 191.5L408.5 202.5M388.5 192.5C377.958 194.578 371.975 195.503 360.5 194.5M267.5 185C267 215 252.5 233 244 227.5C235.5 222 248 194 271 195C294 196 287.5 232.5 272.5 230C257.5 227.5 270 206 291 228.5M392.5 275C388.5 305.5 373.5 323 365 316.5C356.5 310 370 281.234 392.5 286.5C415 291.766 410.5 321 387 322.5M480 288C504.5 284 500.5 281 480 315M480 314.5C510 276 525 279 519 305C513 331 532 315.5 533 315M444 365C443 407 450.5 412.5 433.5 412.5C416.5 412.5 423 382 464 409M420 29C441.932 17.2497 463.5 9.5 467 22C470.5 34.5 456 36 447 33M378.5 365C373 402 370.5 412.5 388 412.5C405.5 412.5 408.5 396.5 398 387M491 15.5C490 52 478.5 37 504.5 28.5C530.5 20 533 58 494 52M490.5 128.5C486 111 512 85.5 518.5 109.5C525 133.5 508.5 140 496.5 143.5M490.5 128C489.969 115.377 490.252 107.683 492.5 94.5M540 18C564 14.5 560.5 11.5 540 45M568 50C589.5 48 592.5 27 583.5 21.5C574.5 16 561 14.5 540.5 44.5M436 213.5C453 236.5 475 213.5 465 200.5C455 187.5 427.5 192.5 427 224M489.5 189.5C532.5 189.5 521 181 483.5 218M512.5 230.5C511 219 499 214.5 495 223.5C491 232.5 520.5 238 523.5 221C526.5 204 500 199.008 484 217.508M489 370.492C532 370.492 520.5 361.992 483 398.992M494 412C507.5 413 523 411 523 398C523 385 500.5 380.5 483.5 398.5M586 383.5C542.5 397.5 543.5 418.5 583 411.5M567.5 404C571 384 563 377 542.5 395.5M559.5 364.5C557.179 376.882 553.313 383.782 542 396M625 6.5C613.38 26.6574 608.695 36.8619 602 53.5M650 36.5C645 54 627.5 59 628.5 39C629.5 19 608.5 30.5 602 53M20.5 4.5C18.1089 24.5811 17.001 35.6895 22 51M78.5 5C76.5504 22.2842 73 35 63 53M124.5 16.5C142.47 18.1083 151.577 17.5893 166 14M181.5 17C193.414 17.3175 199.701 16.2032 211 14.5M241 16.5C252.729 17.1212 258.79 16.4342 269 14M319 19C331.362 19.6742 337.968 19.2841 349.5 18M366.5 13C381.865 15.093 390.212 14.4078 405 12.5M366 26C381.733 27.2382 390.336 26.9164 405.5 25.5M441.5 5L449.5 12.5M427 10C435.89 26.0192 440.108 35.6258 445.5 54.5M494.5 7.5L517.5 12M555 4.5L553 54M403.5 111C403.14 127.751 400.111 135.456 386 144M182 105C197.611 106.202 206.369 105.783 222 103M121 194.5L170.5 194M66 103C80.3012 104.624 88.2916 104.119 102.5 101M65 115.5C87.9039 116.221 97.1674 115.643 106 112.5M258 220C251.185 209.879 248.815 203.199 245 191M79 290C90.8953 291.173 97.7104 290.749 110 289M118 294.5L170 290M255 274.5L253 324M385 314.5C375.336 301.902 372.399 293.961 368 279.5M427 225C425.28 216.734 423.832 210.445 427 188.75M448 184C452.655 213.022 450.616 224.02 438.5 234M495 274.5L493 324M578.5 372C564.403 373.377 556.637 374.46 541.5 373.5M444.5 379.5L464 378M362 375C371.013 376.985 376.013 378.123 391.5 377M360.5 390.5C369.923 392.184 375.073 393.187 391 392M320 371C329.567 371.238 333.708 372.028 347.5 370M319 385C329.906 385.318 335.616 385.85 349 384M121.5 390.5C139.343 387.349 149.415 386.592 167.5 387M719 21.5C755.5 18 753.112 18.8437 751.5 35.5C749.888 52.1563 747 53.5 735 51M769.5 34.5C766.053 25.1849 763.747 20.5975 759 13.5M806.5 5C816.5 42.5 831 35 806 34.5M790.5 33.5C781 53.5 799.5 54.5 819.5 51.5M728.5 126.5C720 143 736 145 756 142M791.5 96C791 132.5 788 137.5 797 142C806 146.5 820 139.5 826 130.5M743.5 95C753.5 139 769 128 744 127.5M856.5 5.5C854.4 22.7091 851.314 33.399 843 54M865.5 26.5C873.604 25.5738 878.217 25.7159 886.5 26.5M864 38.5C860.54 53.0957 872 53 887 51M855.5 95.5C848.5 140 839.649 129.743 862 120C880.5 111.936 898.5 145.5 852.5 142.5M753.5 186C724 216 718 199 755.5 233M808.5 184.5C807 209 813.5 221.5 802.5 220.5C791.5 219.5 791 206 801.5 204C812 202 818 225.5 793.5 233.5M840 204C875.5 189.5 884.5 196.5 886 209C887.5 221.5 873.92 227.185 855.5 229.5M726.5 276.5C720 328.5 723.5 331 730.5 304M757 276C758.874 307.298 757.049 319.429 745 324.5M792 278.5C792 329 787 322 822.5 320M816 276.5C815 311.5 817.5 308 804.5 306.5M883.5 322C852.5 322.5 854 282 889.5 281M842 285.5L889.5 280.5M728 372.5C740.496 373.735 747.502 373.675 760 373M728 394.5C722.698 412.871 738 413.5 764 409.5M788.5 370C826.5 370 819 360.5 791.5 388.5M816.5 412.5C789.5 415 789 388 816.5 387M879 376C835.5 394 836.5 419.5 883 410.5M857.5 387L848.5 368M737.5 5.5C735.551 22.7842 732 35.5 722 53.5M783.5 17C801.47 18.6083 810.577 18.0893 825 14.5M839.5 18C851.414 18.3175 857.701 17.2032 869 15.5M840 105.5C855.611 106.702 864.369 106.283 880 103.5M779.5 195L829 194.5M723.5 103.5C737.801 105.124 744.292 104.619 758.5 101.5M722.5 116C745.404 116.721 754.667 116.143 763.5 113M738 290.5C749.895 291.673 756.71 291.249 769 289.5M777 295L829 290.5M779 390.5C796.843 387.349 806.915 386.592 825 387M906 7C899 55 903 67 909.5 36M935.5 7C937 49.5 939 51.5 926.5 53C914 54.5 914 24.5 949 49M900.5 104.5C923 104.5 926.082 89.3934 909.041 116.447C892 143.5 933.5 157.5 936.541 125.447C939.582 93.3934 928.5 91.5 948.5 126M916.5 188C924.5 193 938.5 194.5 925.5 201M917.5 205.5C934 222.5 937.5 234.5 912.5 231.5M939 210.5C943.823 217.49 946.027 221.536 949 229M897.5 229C903.697 225.049 907.017 222.587 912.5 217.5M902 308.5C930 278 912 280.5 951.5 318.5M905 367.5C898 415.5 902 427.5 908.5 396.5M934 367.5C935.5 410 937 412 925 412.5C913 413 914 385.5 948 408.5M917.5 20C929.862 20.6742 936.468 20.2841 948 19M918 372C927.567 372.238 931.708 373.028 945.5 371M917 386C927.906 386.318 933.616 386.85 947 385M966 7C959 55 963 67 969.5 36M995.5 7C997 49.5 999 51.5 986.5 53C974 54.5 974 24.5 1009 49M960.5 104.5C983 104.5 986.082 89.3934 969.041 116.447C952 143.5 993.5 157.5 996.541 125.447C999.582 93.3934 988.5 91.5 1008.5 126M976.5 188C984.5 193 998.5 194.5 985.5 201M977.5 205.5C994 222.5 997.5 234.5 972.5 231.5M999 210.5C1003.82 217.49 1006.03 221.536 1009 229M957.5 229C963.697 225.049 967.017 222.587 972.5 217.5M962 308.5C990 278 972 280.5 1011.5 318.5M965 367.5C958 415.5 962 427.5 968.5 396.5M994 367.5C995.5 410 997 412 985 412.5C973 413 974 385.5 1008 408.5M977.5 20C989.862 20.6742 996.468 20.2841 1008 19M978 372C987.567 372.238 991.708 373.028 1005.5 371M977 386C987.906 386.318 993.616 386.85 1007 385M2.5 377C14.0044 378.23 20.1321 377.021 31 374.5M1331 187C1340.52 188.436 1346.03 188.911 1356 189.5M1324 205C1356 195.5 1359.3 204.372 1358.5 214.5C1357.7 224.628 1346.01 228.989 1333 232.5M1321 119H1368.5" stroke="black" stroke-width="4"/>
<path d="M767 2L771.5 10M760 4.5L765 12.5M827 1L831.5 9M820 3.5L825 11.5M886 6L890.5 14M879 8.5L884 16.5M948 3L952 11.5M942 5L946 13.5M765.5 92.5L770 100.5M758.5 95L763.5 103M817 98L823 108M810 101L815 111M886 92L890.5 100M879 94.5L884 102.5M948 93.5L952 102M941.5 96L945.5 104.5M759 196L764 205M752 198.5L757 208M817.5 185L822 192.5M825 183.5L829.5 191M879 186L883.5 194.5M885.5 183.5L890.5 192M939.5 193.5L944 202M946 191L951 199.5M768.5 273L772 281.5M762.5 275L766 283.5M828 275L831.5 283.5M822 277L825.5 285.5M879.5 291.5L884 300M886 289L890.5 297.5M937 282L942.5 292M944.5 279L950 289M759.5 364.5L764.5 373M766.5 362L771.5 370.5M816.5 374L821 382M823 371.5L827.5 379.5M880 366L884.5 374M887 363.5L891.5 371.5M942 365.5L945.5 373.5M948.5 363.5L952 371.5M1359 191L1364 199.5M1366 188.5L1371 197M1007 3C1013.5 3 1013.5 13 1007 13C1000.5 13 1000.5 3 1007 3ZM1007 94.5C1013.5 94.5 1013.5 104.5 1007 104.5C1000.5 104.5 1000.5 94.5 1007 94.5ZM1006 191C1012.5 191 1012.5 201 1006 201C999.5 201 999.5 191 1006 191ZM1003.5 281C1011 281 1011 292 1003.5 292C996 292 996 281 1003.5 281ZM1007 362C1013.5 362 1013.5 372 1007 372C1000.5 372 1000.5 362 1007 362Z" stroke="black" stroke-width="3"/>
<path d="M1164.24 374.12C1163.4 409.324 1169.68 413.934 1155.44 413.934C1141.19 413.934 1146.63 388.369 1181 411M1143.63 35.1264C1162.01 25.2776 1180.09 18.7819 1183.02 29.2592C1185.95 39.7364 1173.8 40.9937 1166.26 38.4791M1157.9 219.396C1172.15 238.674 1190.59 219.396 1182.21 208.5C1173.83 197.604 1150.78 201.795 1150.36 228.197M1161.65 15.0101L1168.35 21.2965M1149.49 19.201C1156.94 32.628 1160.48 40.68 1165 56.5M1150.36 229.035C1148.92 222.107 1147.71 216.836 1150.36 198.651M1167.96 194.67C1171.86 218.996 1170.16 228.214 1160 236.579M1164.66 386.274L1181 385.016M1325.3 30.3797C1354.55 18.4309 1361.97 24.1993 1363.21 34.5C1364.44 44.8007 1353.25 49.4859 1338.07 51.3932" stroke="black" stroke-width="3.35272"/>
<path d="M1207.73 20.0383C1219.06 21.2967 1233.4 19.4562 1240.45 18.3603M1228.71 53.178C1245.49 51.0805 1248.42 37.2373 1237.94 30.5255C1227.45 23.8137 1206.06 35.5594 1207.31 46.0466C1208.57 56.5339 1229.97 46.0466 1235 24.2332M1235.35 109.831C1240.31 117.85 1242.27 123.326 1244.16 135M1208.5 107.733C1206.4 142.551 1218.57 150.102 1225.7 130.386M1215.93 196C1223.91 197.205 1228.54 197.604 1236.9 198.098M1210.06 211.102C1236.9 203.131 1239.67 210.575 1239 219.072C1238.33 227.569 1228.52 231.228 1217.61 234.174M1217.5 285.907C1225.04 287.152 1229.36 287.709 1237.22 288.424M1211.61 299.25C1246.85 300.509 1243.5 285.407 1210.36 324M1247.69 322.322C1222.94 328.614 1238.46 306.801 1222.94 310.996M1217.91 373.593C1218.33 415.123 1219.17 415.123 1211.19 412.606C1203.22 410.089 1204.9 400.021 1224.62 395.407C1244.33 390.792 1248.95 412.186 1225.46 413.445M1235.11 380.725L1246.01 387.856M1221.58 12.4875C1219.57 29.335 1218.64 38.6548 1222.83 51.5M1205.74 384.5C1215.39 385.532 1220.53 384.517 1229.65 382.403" stroke="black" stroke-width="3.35592"/>
<path d="M2.5 551.5L48 552M49 550.5C42.6995 559.811 39.5034 564.022 32.5 569M24.5 560C24.2702 579.617 20.6149 586.676 8.5 593M82.5 545.5C82.6505 573.718 76.9021 581.526 64.5 592.5M62.5 558.5H103M104 556.5C102 596.5 101.5 591 86 590.5M134 546.5V578M119 560.5H170M156 546C156 580 155.5 585.5 139.5 593.5M204.5 544.5C197.266 557.748 192.621 563.706 183 571M223.5 554.5H199.5M189 593.5C208.307 585.341 216.336 576.689 225 553M198.5 566.5L221.5 583M241 562.5H290M266.5 546C266.5 575 268.5 580.5 250.5 593M317 552C314.532 568.432 311.006 576.886 302 591M332 551.5C339.402 566.384 342.753 575.104 348 591M361 554H407M371 569.5C381.292 577.893 386.633 583.063 395.5 593M408.5 553C398.66 567.021 393.401 572.962 384.5 580M432.5 545.5L446 594.5M419.5 564L468 554.5M468.5 553C463.335 561.836 459.491 566.871 452.5 574M489 550.5H523M483.5 564.5H524.5M525.5 562.5C520.288 579.535 514.562 586.631 495 593M545.5 571V551M584 553H543.5M585 551C582 576.5 574.33 585.983 555.5 592.5M607 550L622 562.5M649 561C636.826 579.167 626.967 585.411 605.5 591.5M28 684.5V651.5M45 637.5C31.2062 650.925 21.9243 656.772 1.5 663M80 635.5L90 684.5M62 651.5L103 645M62 669L108 661M168.5 652.5C159 667 146 677 125.5 682M131.5 638.5L144.5 647M122.5 652L135.5 660M185.5 643C201.052 643.08 208.937 641.943 222 638.5M180.5 657.5H229.626M191 683C201.5 675 207 675.5 206 642.5M246 646.5H283M240.5 676H288M311.5 636.5V667.5C311.5 679.5 312.5 680 324 680L346.5 679M343.5 647L312 658M371.5 639.5C384.187 641.254 390.887 642.934 402.5 646.5M368.5 655C381.187 656.754 387.387 658.934 399 662.5M365.5 672.5C379.714 674.623 390.942 678.31 401 681.5M491 637.5V666.326M518.5 637C519.5 675 517 674 499 683M5.5 752V733.5M3.5 735.5L44.5 736M45.5 733.5C40.5 758.5 35 765 16 771.5M24.5 723.5V735.5M84.5 724C78.3239 736.321 73.8982 742.205 63 749.5M79 734.5H103.5M69.5 772.5C89.3305 763.312 98.5233 756.529 104.5 732M124.5 732H157.5M158 730C153 746.5 142.344 759.865 121 771M165 771.5L146.5 752M224.5 729.5C218.345 754.986 209.685 762.444 191 771.5M198.5 727.5L204 743M188 747.5L181.5 731.5M249 744C262.061 752.184 269.082 757.095 281 766.5M244.5 732H278.5M279.5 730C272.354 756.318 262.5 763.5 243.5 772M340.5 732H302M342 729.5C339 755 328.33 764.483 309.5 771M379.5 726.5L367 766.5M356.5 768L400 762.5M392 748C397.915 757.114 400.697 762.515 405 772.5M423 734H455.41M416.5 765.5H466.5M456 732L450.5 765M490 727C490 754 489 761 478 771.5M505.5 727V769.5M527 753C520.583 761.602 514.654 764.752 504 770.5M0 856.5H50M4 824H46.5M24.7595 824.5V856M76.5 814.5C73.4457 827.111 70.1786 832.952 62 841.5M110 827.5H72.5M91.5 828C91.0448 844.612 86 853.5 74 862M165.5 858.5C161 860 159.5 860.5 148 860.5C136.5 860.5 135.5 860 135.5 848V815M165.5 827L119 836M166 826C161.654 833.887 158.658 838.144 152.5 845.5M188 819.5H223M181 834.5H229.7M191.5 863C201.154 856.728 205.739 852.195 206.5 835M244 825H281M241.5 850.5C262.941 844.147 271.081 837.589 282.5 823.5M265.5 813.5V824.5M265.167 840.299V863.799M274.5 842.5L289 851.5M301 847C329 816.5 311 819 350.5 857M370.5 827C386.038 837.179 393.506 843.52 405.5 855.5M401 817C392.799 838.137 385.555 848.344 364.5 861.5M491.5 817V859M528 838C519 848.5 508 855.5 490 860M2.5 918H49M20 951C34 951.5 32 952 32 940.5V905M2 945.5C16.2828 937 23.3689 931.288 32.5 917.5M65.5 913.5H105.5M64.5 947H105.5M103 913V952.5M125 910.5L134.5 927M163 908.5C158.746 931.316 152.349 941.728 133.5 952M197.711 905.5V923.5M197.711 954V923.5M224.5 934C214.395 929.165 208.546 926.834 197.711 923.5M280.5 908C271.786 934.603 263.457 942.699 245.5 951M302 917.5H349M326 905V942.5C326.089 952.582 326 951.5 314.5 951.5M313.5 928.5L302.5 944.5M338.5 928.5L349 943.5M366 912H404.5M362 929H409M406.5 950L390.5 950.5C383.601 950.778 381.555 948.375 381.5 939V911.5M425 912.5H462.5M462.222 910.5V953.5M427 930H462.5M424.5 948H462.5M486.244 952.5V911M524 952.5V911M486 913.303H524.5M486 946.5H524.5M585.5 909.5C581.412 935.687 574.079 944.736 553.5 952.5M545 911.5H585M546.5 927H581M741 546.5C741.151 574.718 735.402 582.526 723 593.5M721 559.5H761.5M762.5 557.5C760.5 597.5 760 592 744.5 591.5M792.5 547.5V579M777.5 561.5H828.5M814.5 547C814.5 581 814 586.5 798 594.5M863 545.5C855.766 558.748 851.121 564.706 841.5 572M882 555.5H858M847.5 594.5C866.807 586.341 874.836 577.689 883.5 554M857 567.5L880 584M738.5 636.5L748.5 685.5M720.5 652.5L761.5 646M720.5 670L766.5 662M827 653.5C817.5 668 805.5 677.5 785 682.5M791 638.5L804 647M782 652.5L795 660.5M844 644C859.552 644.08 867.437 642.943 880.5 639.5M839 658.5H888.126M849.5 684C860 676 865.5 676.5 864.5 643.5M739 725C732.824 737.321 728.398 743.205 717.5 750.5M733.5 735.5H758M724 773.5C743.831 764.312 753.023 757.529 759 733M781.5 733H814.5M815 731C810 747.5 799.344 760.865 778 772M822 772.5L803.5 753M881 734C873.5 759.5 866.685 763.444 848 772.5M855.5 728.5L861 744M845 748.5L838.5 732.5M735.5 816C732.446 828.611 729.179 834.452 721 843M769 829H731.5M750.5 829.5C750.045 846.112 745 855 733 863.5M825 859.5C820.5 861 819 861.5 807.5 861.5C796 861.5 795 861 795 849V816M825 828L778.5 837M825.5 827C821.154 834.887 818.158 839.144 812 846.5M847 820.5H879M851 863.5C860.654 857.228 865.239 852.695 866 835.5M724.5 915H764.5M723.5 948.5H764.5M762 914.5V954M784 911.5L794 928.5M821.5 913C816 936 810.849 942.728 792 953M855.711 906V924M855.711 954.5V924M882.5 934.5C872.395 929.665 866.546 927.334 855.711 924M840 835.232H889M916.5 552.5C914.032 568.932 910.506 577.386 901.5 591.5M931.5 552C938.902 566.884 942.253 575.604 947.5 591.5M909 637.5V668.5C909 680.5 910 681 921.5 681L944 680M941 648L909.5 659M938 733H899.5M939.5 730.5C936.5 756 925.83 765.483 907 772M901 848C929 817.5 911 820 950.5 858M901 918.5H948M925 906V943.5C925.089 953.582 925 952.5 913.5 952.5M912.5 929.5L901.5 945.5M937.5 929.5L948 944.5M976.5 552.5C974.032 568.932 970.506 577.386 961.5 591.5M991.5 552C998.902 566.884 1002.25 575.604 1007.5 591.5M969 637.5V668.5C969 680.5 970 681 981.5 681L1004 680M1001 648L969.5 659M998 733H959.5M999.5 730.5C996.5 756 985.83 765.483 967 772M961 848C989 817.5 971 820 1010.5 858M961 918.5H1008M985 906V943.5C985.089 953.582 985 952.5 973.5 952.5M972.5 929.5L961.5 945.5M997.5 929.5L1008 944.5M1321 753V734.5M1319 736.5L1360 737M1361 734.5C1356 759.5 1350.5 766 1331.5 772.5M1340 724.5V736.5" stroke="black" stroke-width="4"/>
<path d="M758.5 546L763.5 554M765.5 543.5L770.5 551.5M821.5 547L825 555M827.5 545L831 553M879.5 544.5L884 552.5M886 542L890.5 550M939.5 546L944 554M946.5 543.5L951 551.5M944 633.5L949 641.5M937 636L942 644M885.5 642.5L890 650M879 645L883.5 652.5M824 635L830 644.5M816.5 638L822.5 647.5M765 631.5L770 639.5M758.5 634L763.5 642M762.5 722.5L767.5 730.5M756 725L761 733M815 724L820 732M822 722L827 730M874.5 723.5L879.5 731M882 721.5L887 729M935 723L940 731M943 721.5L948 729.5M759 815.5L764 823.5M765.5 813L770.5 821M819 815L824 823.5M826 812.5L831 821M880.5 814L885.5 822.5M887 811.5L892 820M935 822L940.5 831.5M942.5 819L948 828.5M757.5 903.5L762 911.5M765.5 902L770 910M817.5 904L822.5 911.5M825 902L830 909.5M873 910L878 919M880.5 907L885.5 916M938.5 906L943.5 914M945.5 904L950.5 912M1361.5 722L1366.5 730M1354.5 724L1359.5 732M1006 545C1012.5 545 1012.5 555 1006 555C999.5 555 999.5 545 1006 545ZM1004.5 635C1011 635 1011 645 1004.5 645C998 645 998 635 1004.5 635ZM1003.5 724C1010 724 1010 734 1003.5 734C997 734 997 724 1003.5 724ZM1001.5 820.5C1009 820.5 1009 831.5 1001.5 831.5C994 831.5 994 820.5 1001.5 820.5ZM1004 903C1010.5 903 1010.5 913 1004 913C997.5 913 997.5 903 1004 903Z" stroke="black" stroke-width="3"/>
<path d="M1155.5 555.78L1166.72 596.5M1144.7 571.154L1185 563.259M1185.42 562.013C1181.12 569.355 1177.93 573.54 1172.12 579.464M1363.33 559.822C1358.22 581.001 1351.02 587.199 1335.49 594.724M1341.73 558.16L1346.3 571.04M1333 574.78L1327.6 561.484M1146.07 743.662H1173M1140.67 769.839H1182.22M1173.49 742L1168.92 769.424M1337.32 645.697C1334.79 656.176 1332.07 661.03 1325.27 668.134M1365.16 656.5H1334M1349.79 656.916C1349.41 670.72 1345.22 678.107 1335.25 685.17M1148.34 921.428H1179.5M1179.27 919.766V955.5M1150 935.971H1179.5M1147.92 950.929H1179.5" stroke="black" stroke-width="3.32409"/>
<path d="M1206.39 561.33L1244.17 561.746M1245 560.5C1239.77 568.232 1237.11 571.729 1231.3 575.863M1224.65 568.389C1224.46 584.68 1221.43 590.541 1211.37 595.793M1225.63 686.404V659M1239.75 647.374C1228.29 658.523 1220.58 663.378 1203.62 668.55M1205.28 758.667V743.304M1203.62 744.965L1237.67 745.38M1238.5 743.304C1234.35 764.065 1229.78 769.463 1214 774.86M1221.06 735V744.965M1204.44 860.073H1245.96M1207.76 833.085H1243.05M1225 833.5V859.658M1206.89 926.5H1245.5M1221.42 953.904C1233.04 954.319 1231.38 954.734 1231.38 945.184V915.704M1206.47 949.337C1218.33 942.278 1224.22 937.535 1231.8 926.085" stroke="black" stroke-width="3.32169"/>
</svg>
